<svg width="144" height="32" viewBox="0 0 144 32" fill="none" xmlns="http://www.w3.org/2000/svg">
<path d="M47.0971 27.2254V22.4512H42.3874H37.6777V27.2254V31.9996H42.3874H47.0971V27.2254Z" fill="#66C3FF"/>
<path d="M106.066 27.2254V22.4512H101.356H96.6465V27.2254V31.9996H101.356H106.066V27.2254Z" fill="#66C3FF"/>
<path d="M75.6147 25.637V24.1774L76.3728 24.206C77.2141 24.2378 77.5588 24.3558 77.7929 24.6918C78.1973 25.2724 78.1559 26.1445 77.7 26.6491C77.4035 26.9774 77.0081 27.0965 76.2159 27.0965H75.6147V25.637V25.637ZM75.6147 28.9605V27.4052L76.3405 27.4307C77.59 27.4746 77.6594 27.5522 78.1349 29.4352L78.4077 30.5159H79.0112C79.3431 30.5159 79.6147 30.5011 79.6147 30.4831C79.6147 30.4197 79.0294 28.3524 78.9573 28.1611C78.7638 27.6475 78.4382 27.3921 77.8597 27.3C77.6717 27.2701 77.5615 27.2303 77.6147 27.2116C77.6679 27.1929 77.8779 27.129 78.0813 27.0696C78.869 26.8396 79.2612 26.3433 79.2579 25.5804C79.254 24.6491 78.6903 24.0987 77.5755 23.9376C77.3309 23.9022 76.5284 23.8727 75.7921 23.872L74.4534 23.8707V27.1933V30.5159H75.034H75.6147V28.9605V28.9605ZM60.5824 30.3223V30.1288H58.905H57.2276V28.7094V27.2901H58.647H60.0663V27.0965V26.903H58.647H57.2276V25.5804V24.2578H58.8405H60.4534V24.0643V23.8707H58.2599H56.0663V27.1933V30.5159H58.3244H60.5824V30.3223ZM90.522 30.5534C91.3231 30.4105 91.8019 30.0883 92.0642 29.5159C92.458 28.6566 92.163 27.6864 91.3566 27.1888C91.1615 27.0684 90.6112 26.8228 90.1338 26.643C88.6939 26.1007 88.404 25.8875 88.3405 25.3241C88.2192 24.2479 89.5532 23.6621 90.5086 24.372C90.7588 24.5579 90.9049 24.8644 90.9618 25.3223L91.0018 25.6449L91.5663 25.6636C92.1216 25.6819 92.1308 25.6797 92.1308 25.5301C92.1308 25.2302 91.9363 24.7315 91.7212 24.4803C91.1434 23.8052 89.7631 23.5645 88.5758 23.9318C87.0828 24.3937 86.7752 26.1014 88.0295 26.9644C88.1907 27.0753 88.8022 27.3503 89.3882 27.5754C90.5666 28.0281 90.8609 28.2116 91.0397 28.6052C91.5276 29.6797 90.4688 30.6074 89.1883 30.2271C88.6604 30.0703 88.3525 29.643 88.2821 28.9691L88.2415 28.5804H87.6661H87.0907L87.1323 28.8869C87.2237 29.5582 87.6447 30.1356 88.2321 30.3955C88.7786 30.6372 89.697 30.7005 90.522 30.5534V30.5534ZM82.8727 30.1683C82.2185 29.9632 81.7837 29.4802 81.5313 28.6781C81.4092 28.2902 81.3889 28.0781 81.3889 27.1933C81.3889 26.0768 81.4428 25.7716 81.7482 25.1611C82.1105 24.4365 82.6745 24.098 83.5179 24.0991C84.9478 24.101 85.6776 25.1415 85.6788 27.1799C85.6795 27.8655 85.552 28.6085 85.3558 29.0663C85.1668 29.5071 84.6965 29.972 84.2828 30.1267C83.8831 30.2763 83.2745 30.2942 82.8727 30.1683V30.1683ZM84.647 30.48C86.1791 30.0246 87.0543 28.6753 86.9465 26.9349C86.8408 25.2282 85.9272 24.1369 84.3516 23.8355C83.4121 23.6557 82.5771 23.7616 81.759 24.1642C80.8902 24.5917 80.3581 25.3183 80.1626 26.3441C79.7647 28.4326 80.7554 30.1247 82.6212 30.5434C83.1614 30.6646 84.1276 30.6344 84.647 30.48V30.48ZM71.5038 30.55C72.3457 30.3716 72.8926 29.9405 73.1775 29.2307C73.317 28.8833 73.3227 28.7837 73.3434 26.3707L73.3648 23.8707H73.1027H72.8405V26.1579C72.8405 28.585 72.808 28.9386 72.5423 29.4009C72.0116 30.3243 70.3941 30.5477 69.5924 29.8084C69.0836 29.3392 69.0737 29.2772 69.0483 26.403L69.0259 23.8707H68.4493H67.8728V26.1169C67.8728 27.4564 67.9011 28.5177 67.9429 28.746C68.0298 29.2202 68.3484 29.8338 68.6108 30.0319C69.3289 30.5741 70.4459 30.7742 71.5038 30.55ZM65.7071 30.4525C66.0595 30.3823 66.4877 30.2785 66.6587 30.2217L66.9695 30.1184V28.9301V27.7417H66.3889H65.8082V28.897V30.0524L65.1925 30.1632C63.4713 30.4731 62.6325 30.003 62.2535 28.5159C62.1323 28.0402 62.1312 26.2882 62.2519 25.8062C62.3784 25.3011 62.6121 24.8296 62.8653 24.5689C63.4494 23.9675 64.4473 23.9021 65.1274 24.4209C65.367 24.6036 65.7437 25.276 65.7437 25.5209C65.7437 25.8488 65.7846 25.8707 66.397 25.8707H66.972L66.9328 25.6933C66.75 24.8666 66.4286 24.443 65.7234 24.0994C64.5923 23.5485 63.0127 23.6698 62.0673 24.3801C61.1997 25.0321 60.7686 26.143 60.8632 27.4836C60.9778 29.1098 61.8495 30.2329 63.2445 30.5518C63.7599 30.6696 64.8342 30.6263 65.7071 30.4525H65.7071ZM53.6833 30.5534C54.4844 30.4105 54.9632 30.0883 55.2255 29.5159C55.6193 28.6566 55.3243 27.6864 54.5179 27.1888C54.3228 27.0684 53.7725 26.8228 53.2951 26.643C51.8552 26.1007 51.5653 25.8875 51.5018 25.3241C51.3805 24.2479 52.7145 23.6621 53.6699 24.372C53.9201 24.5579 54.0662 24.8644 54.1231 25.3223L54.1631 25.6449L54.7276 25.6636C55.2829 25.6819 55.2921 25.6797 55.2921 25.5301C55.2921 25.2302 55.0976 24.7315 54.8825 24.4803C54.3047 23.8052 52.9244 23.5645 51.7371 23.9318C50.2441 24.3937 49.9365 26.1014 51.1908 26.9644C51.352 27.0753 51.9634 27.3503 52.5495 27.5754C53.7279 28.0281 54.0222 28.2116 54.2009 28.6052C54.6889 29.6797 53.6301 30.6074 52.3496 30.2271C51.8217 30.0703 51.5138 29.643 51.4434 28.9691L51.4028 28.5804H50.8274H50.252L50.2936 28.8869C50.385 29.5582 50.806 30.1356 51.3934 30.3955C51.9399 30.6372 52.8583 30.7005 53.6833 30.5534V30.5534Z" fill="#004AB7"/>
<path d="M30.4518 26.1941V22.3877H26.6453H22.8389V26.1941V30.0006H26.6453H30.4518V26.1941V26.1941Z" fill="#66C3FF"/>
<path d="M120.904 26.1941V22.3877H117.097H113.291V26.1941V30.0006H117.097H120.904V26.1941Z" fill="#66C3FF"/>
<path d="M17.0333 25.5478V22.5801H14.001H10.9688V25.5478V28.5156H14.001H17.0333V25.5478Z" fill="#66C3FF"/>
<path d="M132.775 25.5478V22.5801H129.743H126.711V25.5478V28.5156H129.743H132.775V25.5478Z" fill="#66C3FF"/>
<path d="M5.29165 24.9027V22.5801H2.96907H0.646484V24.9027V27.2252H2.96907H5.29165V24.9027Z" fill="#66C3FF"/>
<path d="M143.097 24.9027V22.5801H140.775H138.452V24.9027V27.2252H140.775H143.097V24.9027Z" fill="#66C3FF"/>
<path d="M8.05077 20.2863C10.0903 19.9834 11.5656 19.0588 12.2644 17.6452C12.5845 16.9978 12.7083 16.4141 12.7097 15.5458C12.7117 14.3501 12.4048 13.5541 11.6516 12.8013C10.8635 12.0136 10.0442 11.6145 8.0979 11.0703C7.49468 10.9016 6.69629 10.6784 6.32371 10.5742C4.61849 10.0976 3.79613 9.38142 3.7882 8.36605C3.7834 7.75262 3.95702 7.32411 4.38291 6.89822C4.86958 6.41155 5.29599 6.24696 6.17019 6.20836C7.87815 6.13295 8.70388 6.95744 8.82063 8.85484L8.85933 9.48387H10.5998H12.3403L12.2964 9.14516C12.152 8.03321 11.7839 7.26488 11.0348 6.51177C10.218 5.69055 9.32317 5.27168 7.93661 5.06143C7.23188 4.95458 5.72711 4.94046 5.06565 5.03451C3.10368 5.31345 1.5723 6.24844 0.846223 7.61069C0.525483 8.21246 0.388225 8.83222 0.388225 9.6787C0.388225 10.9414 0.644433 11.6156 1.41827 12.3891C2.23082 13.2014 3.23308 13.6478 5.70421 14.2985C7.64688 14.81 8.16936 15.0264 8.74782 15.5597C9.34895 16.1138 9.49588 17.0401 9.10771 17.8286C8.86055 18.3306 8.51394 18.6576 7.94846 18.9222C7.5777 19.0957 7.43736 19.124 6.82013 19.1494C5.72398 19.1946 5.03761 18.9854 4.46336 18.4312C3.94401 17.93 3.61403 16.999 3.61403 16.035V15.6129H1.80702H0L0.0388451 15.9839C0.16295 17.1691 0.513929 17.9356 1.28981 18.7156C1.76302 19.1913 1.93707 19.317 2.51792 19.6028C3.22347 19.95 4.10179 20.215 4.8721 20.3132C5.6351 20.4105 7.30993 20.3963 8.05077 20.2863V20.2863ZM21.6426 20.2006C22.4985 19.9715 23.0603 19.6543 23.6512 19.0663C24.0836 18.636 24.2289 18.4346 24.506 17.881L24.8398 17.2141V18.6071V20H26.8398H28.8398L28.8393 14.9516C28.8387 8.92148 28.8131 8.5796 28.281 7.48387C27.6501 6.18497 26.0843 5.29719 23.9689 5.03898C23.6495 5 22.8366 4.9681 22.1624 4.9681C20.7883 4.9681 20.0506 5.04019 19.1862 5.25895C18.0364 5.54994 17.3203 5.9215 16.6753 6.56175C15.9932 7.23888 15.5572 8.13714 15.4525 9.08064L15.4078 9.48387H17.4735H19.5393L19.5788 9.04839C19.6878 7.84609 19.8872 7.26686 20.3518 6.80224C20.8406 6.31347 21.2564 6.16889 22.1624 6.17269C23.5168 6.17837 24.1341 6.62736 24.4606 7.84425C24.5735 8.26486 24.6033 8.6021 24.6298 9.75806L24.6619 11.1613H24.4032C23.8877 11.1613 21.8169 11.2955 20.8399 11.3922C19.7405 11.501 18.5218 11.7259 17.8721 11.9398C16.233 12.4795 15.1922 13.4848 14.7994 14.9078C14.6428 15.4751 14.6441 16.7716 14.8019 17.3548C15.2276 18.9284 16.4835 19.961 18.3772 20.2944C19.1433 20.4293 20.9855 20.3764 21.6426 20.2006H21.6426ZM20.4015 18.7206C19.4731 18.3887 18.9899 17.5635 18.9214 16.1927C18.7878 13.5179 20.0879 12.4742 23.7915 12.2829L24.6463 12.2388L24.646 12.8129C24.6457 13.7091 24.5232 15.1343 24.3901 15.7917C24.1306 17.0731 23.3774 18.1423 22.4178 18.5914C22.0457 18.7655 21.8943 18.7981 21.3632 18.8187C20.8731 18.8377 20.6714 18.8171 20.4015 18.7206H20.4015ZM67.614 20.2304C68.3525 20.0591 69.1963 19.6259 69.658 19.1811C70.0943 18.7608 70.5473 18.0989 70.7974 17.5161L70.9636 17.129L70.9662 18.5645L70.9689 20H72.9689H74.9689L74.9675 15.371C74.9661 10.4338 74.9204 9.16892 74.7146 8.36771C74.2243 6.45889 72.6441 5.34057 70.0011 5.03207C68.9421 4.90847 66.6035 4.9761 65.7173 5.15597C64.3164 5.4403 63.3518 5.92304 62.6465 6.69269C62.0331 7.36217 61.5495 8.47055 61.5495 9.2071V9.48387H63.6044H65.6592L65.6999 8.91935C65.8219 7.22464 66.4196 6.41367 67.7125 6.18851C68.5328 6.04567 69.4247 6.23638 69.9022 6.65675C70.4956 7.17903 70.6912 7.9196 70.7546 9.8832L70.7958 11.1613L70.5436 11.1613C70.001 11.1613 67.8564 11.2971 66.9658 11.3878C65.0924 11.5784 64.097 11.8149 63.0979 12.3065C62.5999 12.5516 62.3877 12.7053 61.9659 13.1266C61.118 13.9736 60.7743 14.8301 60.7765 16.091C60.7787 17.3692 61.1198 18.291 61.8667 19.0373C62.5227 19.6927 63.313 20.0776 64.436 20.2885C65.1244 20.4179 66.9497 20.3845 67.614 20.2304V20.2304ZM66.5173 18.7316C65.4236 18.3515 64.8612 17.0674 65.0375 15.3523C65.1303 14.4485 65.3714 13.9221 65.9329 13.3968C66.6595 12.7172 67.8358 12.386 69.889 12.2829L70.7668 12.2389L70.7361 13.1033C70.6937 14.2984 70.5948 15.3663 70.4768 15.9026C70.3507 16.4759 69.892 17.4266 69.5536 17.8158C69.2152 18.205 68.6607 18.5696 68.1795 18.7194C67.7074 18.8663 66.9215 18.8721 66.5173 18.7316V18.7316ZM113.937 20.165C114.648 20.0132 114.999 19.8887 115.646 19.5586C116.675 19.0337 117.563 18.0164 117.94 16.929C118.098 16.4732 118.259 15.7421 118.259 15.4797V15.2903H117.364H116.469L116.426 15.6195C116.364 16.088 116.053 16.9001 115.777 17.3161C114.72 18.9083 112.589 19.4648 110.872 18.5967C110.375 18.3454 109.815 17.7312 109.501 17.0935C109.209 16.5012 109.034 15.9204 108.86 14.9677C108.699 14.0874 108.699 11.1869 108.86 10.112C109.078 8.65853 109.46 7.66448 110.045 7.03206C110.458 6.58515 110.872 6.35454 111.438 6.25598C112.515 6.06835 113.44 6.5389 113.898 7.50813C114.182 8.10935 114.388 9.20425 114.388 10.1112V10.5161H116.453H118.517V10.2988C118.517 9.88212 118.318 8.94239 118.13 8.47275C117.641 7.2527 116.82 6.36983 115.586 5.73747C114.487 5.17463 113.498 4.96774 111.907 4.96774C109.887 4.96774 108.338 5.41981 107.027 6.39216C105.661 7.40479 104.809 8.86181 104.41 10.871C104.253 11.6598 104.251 13.6482 104.406 14.4926C104.714 16.1667 105.361 17.4366 106.416 18.4386C107.354 19.3299 108.417 19.8649 109.84 20.1627C110.894 20.3831 112.909 20.3843 113.937 20.165L113.937 20.165ZM134.69 20.3174C136.389 20.0829 137.541 19.2351 138.293 17.6659L138.517 17.1972V18.5986V20H140.517H142.517L142.516 14.9839C142.516 12.1167 142.488 9.70517 142.451 9.35484C142.315 8.05625 141.981 7.27123 141.255 6.54041C140.48 5.761 139.201 5.22872 137.646 5.03898C136.912 4.9493 134.782 4.94672 134.064 5.03464C132.287 5.25212 130.853 5.88805 130.12 6.78433C129.575 7.44989 129.216 8.28016 129.126 9.08063L129.081 9.48386H131.144H133.206L133.282 8.78071C133.435 7.37002 133.852 6.67069 134.751 6.31844C135.285 6.10914 136.378 6.10691 136.912 6.31406C137.345 6.482 137.687 6.79619 137.906 7.22862C138.195 7.7987 138.267 8.25587 138.305 9.74938L138.34 11.1439L137.413 11.1879C135.971 11.2564 134.099 11.4121 133.388 11.5226C131.434 11.8267 130.154 12.3836 129.354 13.2779C127.952 14.8446 128 17.6104 129.453 19.0653C130.06 19.674 131.127 20.1663 132.162 20.3155C132.727 20.3969 134.107 20.398 134.69 20.3175L134.69 20.3174ZM134.162 18.7485C133.571 18.5613 133.133 18.1776 132.893 17.6354C132.448 16.6293 132.486 14.9804 132.975 14.0631C133.58 12.9269 134.867 12.4173 137.469 12.2829L138.324 12.2388V12.7686C138.324 13.6393 138.195 15.1529 138.067 15.7917C137.849 16.8739 137.23 17.8805 136.472 18.3821C135.853 18.7924 134.82 18.9563 134.162 18.7485V18.7485ZM57.614 20.1678C57.9157 20.1129 58.4455 20.0046 58.7915 19.927L59.4205 19.786V19.079C59.4205 18.3789 59.4191 18.3724 59.2753 18.4056C59.1955 18.4241 58.8108 18.5143 58.4205 18.6061C56.7198 19.0061 55.8786 18.7317 55.5235 17.661C55.3235 17.0577 55.2925 16.2252 55.292 11.4355L55.2915 6.64516H57.3882H59.485V6V5.35484H57.3882H55.2915V2.83358V0.31233L55.0818 0.356861C54.9665 0.381351 54.0173 0.601398 52.9726 0.845857C51.9279 1.09031 51.0642 1.29032 51.0533 1.29032C51.0423 1.29032 51.0334 2.20484 51.0334 3.32258V5.35484H49.8721H48.7108V6V6.64516H49.8721H51.0334L51.0352 10.9516C51.0369 15.2625 51.0843 16.8474 51.2295 17.4516C51.5562 18.811 52.7023 19.9161 54.0657 20.1864C54.2608 20.2251 54.4786 20.2702 54.5495 20.2866C54.828 20.3509 57.0897 20.2632 57.614 20.1678H57.614ZM93.7753 20.1362C95.4324 19.6992 96.5646 18.59 97.1959 16.785L97.3464 16.3548L97.3512 18.1774L97.3559 20H99.3237H101.291V12.6774V5.35484H99.1679H97.0444L97.0164 9.59677C96.9867 14.1045 96.9709 14.3603 96.6427 15.6452C96.4705 16.3196 96.0208 17.2413 95.6692 17.6405C95.3023 18.0572 94.7266 18.4235 94.1756 18.5908C93.065 18.9282 91.9462 18.5156 91.4756 17.5951C91.1259 16.9112 91.1372 17.116 91.1144 11.0161L91.0932 5.35484H88.9665H86.8398V10.534C86.8398 13.5837 86.8664 15.9378 86.9044 16.2598C87.1606 18.4282 88.4659 19.8155 90.6356 20.2255C91.3727 20.3648 93.094 20.3158 93.7753 20.1362H93.7753ZM36.905 16.5645C36.9053 14.675 36.9348 12.65 36.9705 12.0645C37.1595 8.9644 38.0432 7.28786 39.7647 6.76355C40.8978 6.41846 42.0424 6.85771 42.5061 7.81558C42.8568 8.54005 42.8579 8.56041 42.887 14.5L42.9139 20H45.0086H47.1033L47.0811 14.4032C47.0562 8.12657 47.0822 8.48121 46.57 7.41935C46.0546 6.35091 45.0529 5.57829 43.7108 5.21399C43.27 5.09433 43.0158 5.0732 41.9689 5.0692C40.8791 5.06502 40.6824 5.08108 40.1966 5.2138C38.5801 5.6554 37.4242 6.76172 36.8092 8.45571L36.5882 9.06452L36.585 7.20968L36.5818 5.35484H34.6463H32.7108V12.6774V20H34.8076H36.9044L36.905 16.5645H36.905ZM83.0334 10.1935V0.387097H80.9044H78.7753V10.1935V20H80.9044H83.0334V10.1935ZM125.291 12.6774V5.35484H123.195H121.098V12.6774V20H123.195H125.291V12.6774ZM126.195 0.831014C126.283 0.717419 126.4 0.576325 126.453 0.517471C126.506 0.458622 126.616 0.318116 126.697 0.205239L126.844 0H125.068C123.613 0 123.291 0.0158793 123.291 0.0877709C121.485 3.36384 123.291 0.0877717 121.485 3.36384C121.485 3.39437 122.102 3.41935 122.856 3.41935H124.228C124.883 2.49603 125.522 1.68967 126.195 0.831014V0.831014Z" fill="#004AB7"/>
</svg>
